
<svg width="61px" height="62px" viewBox="0 0 61 62" version="1.1" xmlns="http://www.w3.org/2000/svg" xmlns:xlink="http://www.w3.org/1999/xlink">
    <!-- Generator: Sketch 49 (51002) - http://www.bohemiancoding.com/sketch -->
    <desc>Created with Sketch.</desc>
    <defs></defs>
    <g id="Symbols" stroke="none" stroke-width="1" fill="none" fill-rule="evenodd" stroke-linecap="round">
        <g id="Glyphs/Touch-ID" stroke="#011627" stroke-width="1.5">
            <g id="Touch-ID" transform="translate(1.000000, 1.500000)">
                <path d="M58.339134,23.6408817 C55.1234138,7.69216903 39.5894623,-2.62886828 23.6414101,0.586851866 M19.3675416,1.78555022 C5.89937767,6.67914729 -2.33141605,20.8119938 0.586939925,35.2858966 M58.9248016,28.495661 C58.8701833,26.8891987 58.6831077,25.2656969 58.3549627,23.6379317 M0.602856716,35.2829907 C0.688274627,35.7058974 0.782058209,36.1248414 0.884647761,36.5398228" id="Stroke-1"></path>
                <path d="M21.8582231,57.9258918 C22.9961894,56.6306898 24.0313533,55.2497242 24.9544186,53.7969563 M26.2474921,51.5775209 C29.728792,45.0354375 31.0499867,37.2930734 29.4709843,29.4619142" id="Stroke-7"></path>
                <path d="M25.982147,58.7196399 C29.0418339,54.8043234 31.3054134,50.2852249 32.5919026,45.4339875 M33.3044329,42.1440718 C34.0347817,37.8193743 33.9996289,33.2903266 33.0808597,28.7342108 C32.6881134,26.7264496 30.73605,25.4291101 28.7318112,25.8333041 C26.7280127,26.2374981 25.4308933,28.1895616 25.8350873,30.1940205 C27.8624418,40.1150466 24.623606,49.8804272 18.0501694,56.6213974" id="Stroke-9"></path>
                <path d="M30.4042631,58.9073172 C31.696651,57.018692 32.8298954,55.0217615 33.7893466,52.9384954 M34.7392876,50.7023033 C37.4623165,43.718795 38.2821172,35.8995493 36.690625,28.0065075 C35.8932444,24.0072761 32.0007854,21.4207425 28.0046362,22.226709 M25.4665479,23.2546063 C22.9876239,24.8516346 21.6099198,27.8560196 22.2281399,30.9212836 C23.5419672,37.3174524 22.3425594,43.6414892 19.3204052,48.886597 M18.0525277,50.8728558 C17.0343334,52.3188186 15.8678769,53.6615235 14.5698078,54.875944" id="Stroke-11"></path>
                <path d="M35.1011474,58.3737194 C40.4085056,49.3262455 42.5369086,38.3694172 40.3004123,27.2785179 L40.3056959,27.2763164 C39.0981772,21.2880366 33.2655429,17.4125291 27.2774832,18.6200478 C21.2892034,19.8275664 17.4136959,25.6602007 18.6214347,31.6487007 L18.6416884,31.6451784 C20.2747556,39.7451299 17.2562892,47.7026448 11.4256362,52.7524284" id="Stroke-13"></path>
                <path d="M40.0319183,56.9614399 C44.4723287,47.8466004 46.0688511,37.2565407 43.9102877,26.5509026 C42.3031981,18.568731 34.5303884,13.4042496 26.5504183,15.0133205 C18.5700078,16.6226116 13.4053063,24.3956414 15.0143772,32.376272 C16.428616,39.3010668 13.7408138,46.102578 8.62894813,50.2895966" id="Stroke-15"></path>
                <path d="M6.18828545,47.525997 C9.9888409,44.472805 12.1535534,39.6293309 11.6408848,34.5515083 M11.1403474,31.3553535 C10.1649524,22.0194462 16.4348144,13.2998176 25.8229571,11.4067694 C31.5791341,10.2460541 37.2489758,11.9056513 41.4010224,15.4343737 M43.4883567,17.5173129 C45.4539816,19.8210908 46.8779573,22.6427872 47.5191063,25.8221425 C48.4433453,30.4035241 48.7288384,34.9650854 48.4373451,39.4150626 M48.2204976,41.8395295 C47.7279326,46.1800303 46.6863952,50.3959997 45.1549235,54.3997172" id="Stroke-17"></path>
                <path d="M50.3740019,50.2135791 C51.9328916,44.3664478 52.5470657,38.1971137 52.0728972,31.9165559 M51.7201605,28.5879018 C51.5614704,27.425815 51.365047,26.2612191 51.1299944,25.0954299 C48.713416,13.1305381 37.0598153,5.38788881 25.0958041,7.80006418 M21.4997235,8.84523773 C11.6278729,12.6448588 5.63964991,23.1132951 7.80065858,33.8311724 C8.63788619,37.9248478 7.0864944,41.9478552 4.1087556,44.4709858" id="Stroke-19"></path>
                <path d="M55.4638746,43.3094123 C55.812371,40.5101217 55.9615023,37.6640663 55.8987417,34.7893311 M55.6872088,30.9274036 C55.4960751,28.7498738 55.1820472,26.5606953 54.7398037,24.3675504 C54.0418387,20.9150849 52.6846418,17.7639702 50.8258113,15.0189895 M48.3873037,11.9511988 C42.4821112,5.58453674 33.5029606,2.35175667 24.3686731,4.19351306 C15.7684213,5.9276175 9.0380518,11.7549996 5.79714723,19.2381467 M4.4801243,23.0862938 C3.54823592,26.7265087 3.4012491,30.6281252 4.19375522,34.5584795 C4.69063209,36.9781399 3.93265821,39.3605951 2.3722403,41.0440765" id="Stroke-21"></path>
            </g>
        </g>
    </g>
</svg>
