
<svg width="64px" height="64px" viewBox="0 0 64 64" version="1.1" xmlns="http://www.w3.org/2000/svg" xmlns:xlink="http://www.w3.org/1999/xlink">
    <!-- Generator: Sketch 49 (51002) - http://www.bohemiancoding.com/sketch -->
    <desc>Created with Sketch.</desc>
    <defs>
        <circle id="path-1" cx="32" cy="32" r="32"></circle>
    </defs>
    <g id="Page-1" stroke="none" stroke-width="1" fill="none" fill-rule="evenodd">
        <g id="Fingerprint-Icon">
            <g id="Group-2">
                <g id="Group">
                    <mask id="mask-2" fill="white">
                        <use xlink:href="#path-1"></use>
                    </mask>
                    <g id="Mask"></g>
                    <g mask="url(#mask-2)" id="Oval" stroke-width="2.5">
                        <g transform="translate(-11.678832, -4.204380)">
                            <path d="M81.7518248,40.8759124 C81.7518248,18.3007694 63.4510555,0 40.8759124,0 C18.3007694,0 0,18.3007694 0,40.8759124" stroke="#000000"></path>
                            <path d="M75.6788321,40.6423358 C75.6788321,21.2922131 59.9924584,5.60583942 40.6423358,5.60583942 C21.2922131,5.60583942 5.60583942,21.2922131 5.60583942,40.6423358" stroke="#45597D"></path>
                            <path d="M70.0729927,40.8759124 C70.0729927,31.4752995 65.6302751,23.1123388 58.7299252,17.7721156 M53.3021339,14.4474908 C49.5317342,12.6716168 45.3197619,11.6788321 40.8759124,11.6788321 C24.7508102,11.6788321 12.4586173,24.7868991 11.6788321,40.8759124" stroke="#222F4E" stroke-linecap="round"></path>
                            <path d="M64.1941608,40.6423358 C64.1941608,27.742254 53.7365783,17.2846715 40.8364965,17.2846715 C39.2098003,17.2846715 37.6219425,17.4509589 36.0889945,17.7674624 M32.8560015,18.6835285 C25.9707969,21.186395 20.595781,26.8352948 18.4690343,33.8921476 M17.5788534,38.4663048 C17.5126643,39.1827634 17.4788323,39.9085986 17.4788323,40.6423358" stroke="#141F2F" stroke-linecap="round"></path>
                            <path d="M58.3941606,40.8759124 C58.3941606,36.9019263 57.0709231,33.2369989 54.8410173,30.2976994 M50.6328207,26.3241 C47.8443164,24.4507263 44.4877636,23.3576642 40.8759124,23.3576642 C31.2008511,23.3576642 23.3576642,31.2008511 23.3576642,40.8759124" stroke="#000000" stroke-linecap="round"></path>
                            <path d="M52.5364964,40.6423358 C52.5364964,34.1922949 47.3077051,28.9635036 40.8576642,28.9635036 C38.0613676,28.9635036 35.4946044,29.9462532 33.4839177,31.5852093 M30.8154831,34.6764366 C29.7759321,36.4225103 29.1788321,38.4626929 29.1788321,40.6423358" stroke="#000000" stroke-linecap="round" stroke-linejoin="round"></path>
                            <path d="M46.7153285,40.8759124 C46.7153285,37.650892 44.1009328,35.0364964 40.8759124,35.0364964 C37.650892,35.0364964 35.0364964,37.650892 35.0364964,40.8759124" stroke="#000000"></path>
                            <path d="M17.4682482,40.6423358 C14.2312365,41.3511045 12.2434435,43.121124 11.6288321,46.4817518" stroke="#141F2F" transform="translate(14.548540, 43.562044) scale(-1, -1) translate(-14.548540, -43.562044) "></path>
                            <path d="M40.9635036,41 C30.4095219,41 21.1739806,46.6449144 16.1114208,55.0802023 M14.3819278,58.4426053 C12.8495273,61.9733842 12,65.869235 12,69.9635036" stroke="#000000" stroke-linecap="round" transform="translate(26.481752, 55.481752) scale(-1, -1) translate(-26.481752, -55.481752) "></path>
                            <path d="M46.7153285,40.6423358 C27.3652058,40.6423358 11.6788321,56.3287095 11.6788321,75.6788321" stroke="#000000" stroke-linecap="round" transform="translate(29.197080, 58.160584) scale(-1, -1) translate(-29.197080, -58.160584) "></path>
                            <path d="M52.5411679,40.6423358 C30.0950256,40.6423358 11.8988321,58.8385293 11.8988321,81.2846715" stroke="#000000" stroke-linejoin="round" transform="translate(32.220000, 60.963504) scale(-1, -1) translate(-32.220000, -60.963504) "></path>
                            <path d="M29.1835036,40.6423358 C19.6374432,40.6423358 11.8988321,48.3809468 11.8988321,57.9270073" stroke="#000000" stroke-linejoin="round" transform="translate(20.541168, 49.284672) scale(-1, -1) translate(-20.541168, -49.284672) "></path>
                            <path d="M23.3576642,40.6423358 C16.9076234,40.6423358 11.6788321,45.871127 11.6788321,52.3211679" stroke="#000000" transform="translate(17.518248, 46.481752) scale(-1, -1) translate(-17.518248, -46.481752) "></path>
                            <path d="M35.0364964,40.6423358 C22.1364146,40.6423358 11.6788321,51.0999183 11.6788321,64" stroke="#000000" transform="translate(23.357664, 52.321168) scale(-1, -1) translate(-23.357664, -52.321168) "></path>
                            <path d="M58.3941606,40.6423358 C37.1081757,40.6423358 19.1473085,54.8788569 13.5138263,74.3496319 M12.2241727,80.1972322 C11.8651033,82.5315549 11.6788321,84.9228566 11.6788321,87.3576642" stroke="#000000" stroke-linecap="round" transform="translate(35.036496, 64.000000) scale(-1, -1) translate(-35.036496, -64.000000) "></path>
                            <path d="M64.2,40.6423358 C35.3038169,40.6423358 11.8788321,64.0673205 11.8788321,92.9635036" stroke="#141F2F" transform="translate(38.039416, 66.802920) scale(-1, -1) translate(-38.039416, -66.802920) "></path>
                            <path d="M70.0729927,40.6423358 C37.8227883,40.6423358 11.6788321,66.786292 11.6788321,99.0364964" stroke="#222F4E" transform="translate(40.875912, 69.839416) scale(-1, -1) translate(-40.875912, -69.839416) "></path>
                        </g>
                    </g>
                </g>
                <circle id="Oval-2" stroke="#000000" stroke-width="1.5" cx="32" cy="32" r="31.25"></circle>
            </g>
        </g>
    </g>
</svg>
