
<svg width="186px" height="258px" viewBox="0 0 186 258" version="1.1" xmlns="http://www.w3.org/2000/svg" xmlns:xlink="http://www.w3.org/1999/xlink">
    <!-- Generator: Sketch 49 (51002) - http://www.bohemiancoding.com/sketch -->
    <desc>Created with Sketch.</desc>
    <defs></defs>
    <g id="Symbols" stroke="none" stroke-width="1" fill="none" fill-rule="evenodd">
        <g id="Group-4">
            <g>
                <g id="Group-2" transform="translate(18.000000, 17.000000)" stroke="#2EC4B6" stroke-linecap="square" stroke-width="2">
                    <path d="M0.5,1.5 L48.5,1.5" id="Line-2"></path>
                    <path d="M0.5,9.5 L48.5,9.5" id="Line-2"></path>
                    <path d="M0.5,17.5 L48.5,17.5" id="Line-2"></path>
                </g>
                <rect id="Rectangle-2" stroke="#2EC4B6" x="0.5" y="0.5" width="185" height="257"></rect>
                <g id="Random-Text" transform="translate(18.000000, 50.000000)" stroke="#2EC4B6" stroke-linecap="square" stroke-width="2">
                    <path d="M0.5,25.5 L144.513888,25.5" id="Line-3"></path>
                    <path d="M0.5,58.5 L144.513888,58.5" id="Line-3"></path>
                    <path d="M0.5,49.5 L144.513888,49.5" id="Line-3"></path>
                    <path d="M0.5,41.5 L144.513888,41.5" id="Line-3"></path>
                    <path d="M0.5,33.5 L144.513888,33.5" id="Line-3"></path>
                    <path d="M0.5,1.5 L144.513888,1.5" id="Line-3"></path>
                    <path d="M0.5,9.5 L144.513888,9.5" id="Line-3"></path>
                    <path d="M0.5,17.5 L144.513888,17.5" id="Line-3"></path>
                </g>
                <g id="Random-Text" transform="translate(18.000000, 174.000000)" stroke="#2EC4B6" stroke-linecap="square" stroke-width="2">
                    <path d="M0.5,25.5 L144.513888,25.5" id="Line-3"></path>
                    <path d="M0.5,58.5 L144.513888,58.5" id="Line-3"></path>
                    <path d="M0.5,49.5 L144.513888,49.5" id="Line-3"></path>
                    <path d="M0.5,41.5 L144.513888,41.5" id="Line-3"></path>
                    <path d="M0.5,33.5 L144.513888,33.5" id="Line-3"></path>
                    <path d="M0.5,1.5 L144.513888,1.5" id="Line-3"></path>
                    <path d="M0.5,9.5 L144.513888,9.5" id="Line-3"></path>
                    <path d="M0.5,17.5 L144.513888,17.5" id="Line-3"></path>
                </g>
                <g id="Group" transform="translate(18.000000, 121.000000)">
                    <rect id="Rectangle-6" fill="#2EC4B6" x="0" y="0" width="76" height="40"></rect>
                    <polyline id="Path-3" stroke="#2EC4B6" points="84.4091797 0.647460938 84.4091797 40.1787109 144.277344 40.1787109"></polyline>
                    <path d="" id="Path-4" stroke="#979797"></path>
                    <polyline id="Path-5" stroke="#2EC4B6" points="84.4648438 16.1962891 96.1904297 28.2705078 104.027344 20.1855469 116.142578 32.5751953 132.075195 12.5253906 136.014648 16.1962891 140 20.1855469"></polyline>
                </g>
            </g>
        </g>
    </g>
</svg>
