
<svg width="64px" height="64px" viewBox="0 0 64 64" version="1.1" xmlns="http://www.w3.org/2000/svg" xmlns:xlink="http://www.w3.org/1999/xlink">
    <!-- Generator: Sketch 49 (51002) - http://www.bohemiancoding.com/sketch -->
    <desc>Created with Sketch.</desc>
    <defs></defs>
    <g id="Symbols" stroke="none" stroke-width="1" fill="none" fill-rule="evenodd">
        <g id="user" fill="#000000" fill-rule="nonzero">
            <g id="Shape">
                <path d="M64,32 C64,14.3557818 49.6442182,0 32,0 C14.3557818,0 0,14.3557818 0,32 C0,41.3195636 4.00756364,49.7198545 10.3866182,55.5729455 L10.3563636,55.5997091 L11.3943273,56.4747636 C11.4618182,56.5317818 11.5351273,56.5783273 11.6026182,56.6341818 C12.1541818,57.0914909 12.7255273,57.5255273 13.3073455,57.9456 C13.4958545,58.0817455 13.6843636,58.2178909 13.8763636,58.3505455 C14.4977455,58.7787636 15.1354182,59.1848727 15.7870545,59.5700364 C15.9290182,59.6538182 16.0721455,59.7352727 16.2152727,59.8167273 C16.9285818,60.2228364 17.6570182,60.6056727 18.4029091,60.9570909 C18.4576,60.9826909 18.5134545,61.0059636 18.5681455,61.0315636 C20.9989818,62.1614545 23.5938909,62.9911273 26.3074909,63.4810182 C26.3784727,63.4938182 26.4494545,63.5066182 26.5216,63.5194182 C27.3640727,63.6648727 28.2158545,63.7812364 29.0781091,63.8592 C29.1828364,63.8685091 29.2875636,63.8743273 29.3934545,63.8836364 C30.2522182,63.9546182 31.1202909,64 32,64 C32.8715636,64 33.7314909,63.9546182 34.5856,63.8859636 C34.6938182,63.8766545 34.8020364,63.8708364 34.9102545,63.8615273 C35.7655273,63.7835636 36.6103273,63.6706909 37.4446545,63.5275636 C37.5168,63.5147636 37.5901091,63.5019636 37.6622545,63.488 C40.3351273,63.0085818 42.8928,62.1975273 45.2922182,61.0967273 C45.3806545,61.056 45.4702545,61.0176 45.5586909,60.9757091 C46.2766545,60.6382545 46.9783273,60.2740364 47.6660364,59.8865455 C47.8370909,59.7899636 48.0069818,59.6922182 48.1768727,59.5921455 C48.8029091,59.2232727 49.4184727,58.8381091 50.0165818,58.4285091 C50.2318545,58.2818909 50.4424727,58.1271273 50.6554182,57.9735273 C51.1662545,57.6058182 51.6677818,57.2264727 52.1553455,56.8296727 C52.2635636,56.7424 52.3799273,56.6667636 52.4858182,56.5771636 L53.5505455,55.6881455 L53.5191273,55.6613818 C59.9540364,49.8059636 64,41.3672727 64,32 Z M2.32727273,32 C2.32727273,15.6381091 15.6381091,2.32727273 32,2.32727273 C48.3618909,2.32727273 61.6727273,15.6381091 61.6727273,32 C61.6727273,40.8168727 57.8036364,48.7435636 51.6782545,54.1824 C51.3361455,53.9461818 50.9917091,53.7344 50.6391273,53.5575273 L40.7866182,48.6318545 C39.9022545,48.1896727 39.3530182,47.3006545 39.3530182,46.3127273 L39.3530182,42.8718545 C39.5810909,42.5902545 39.8219636,42.2714182 40.0709818,41.9211636 C41.3463273,40.1198545 42.3691636,38.1160727 43.1150545,35.9598545 C44.5893818,35.2593455 45.5412364,33.7908364 45.5412364,32.1326545 L45.5412364,28.0075636 C45.5412364,26.9986909 45.1712,26.0200727 44.5090909,25.2509091 L44.5090909,19.8202182 C44.5696,19.2162909 44.7837091,15.808 42.3179636,12.9966545 C40.1733818,10.5483636 36.7022545,9.30909091 32,9.30909091 C27.2977455,9.30909091 23.8266182,10.5483636 21.6820364,12.9954909 C19.2162909,15.8068364 19.4304,19.2151273 19.4909091,19.8190545 L19.4909091,25.2497455 C18.8299636,26.0189091 18.4587636,26.9975273 18.4587636,28.0064 L18.4587636,32.1314909 C18.4587636,33.4126545 19.0336,34.6077091 20.0180364,35.4141091 C20.9605818,39.1063273 22.9003636,41.9013818 23.6171636,42.8485818 L23.6171636,46.2161455 C23.6171636,47.1656727 23.0993455,48.0384 22.2650182,48.4945455 L13.0641455,53.5133091 C12.7709091,53.6727273 12.48,53.8589091 12.1890909,54.0672 C6.13934545,48.6306909 2.32727273,40.7528727 2.32727273,32 Z M49.4068364,56.0081455 C48.9995636,56.3037091 48.5853091,56.5899636 48.1652364,56.8634182 C47.9720727,56.9890909 47.7800727,57.1147636 47.5834182,57.2369455 C47.0341818,57.5767273 46.4756364,57.9002182 45.9054545,58.2027636 C45.7797818,58.2690909 45.6529455,58.3319273 45.5261091,58.3970909 C44.2158545,59.0685091 42.8602182,59.6456727 41.4673455,60.1146182 C41.4184727,60.1309091 41.3696,60.1483636 41.3195636,60.1646545 C40.5899636,60.4066909 39.8510545,60.6219636 39.104,60.8069818 C39.1016727,60.8069818 39.0993455,60.8081455 39.0970182,60.8081455 C38.3429818,60.9943273 37.5796364,61.1490909 36.8116364,61.2759273 C36.7906909,61.2794182 36.7697455,61.2840727 36.7488,61.2875636 C36.0261818,61.4050909 35.2977455,61.4900364 34.5669818,61.5540364 C34.4378182,61.5656727 34.3086545,61.5738182 34.1783273,61.5831273 C33.4557091,61.6378182 32.7296,61.6727273 32,61.6727273 C31.2622545,61.6727273 30.5268364,61.6366545 29.7949091,61.5819636 C29.6680727,61.5726545 29.5412364,61.5645091 29.4155636,61.5528727 C28.6778182,61.4877091 27.9435636,61.4004364 27.2162909,61.2817455 C27.1837091,61.2759273 27.1511273,61.2701091 27.1185455,61.2642909 C25.5802182,61.0071273 24.0663273,60.6289455 22.592,60.1344 C22.5466182,60.1192727 22.5000727,60.1029818 22.4546909,60.0878545 C21.7227636,59.8388364 20.9989818,59.5630545 20.288,59.2581818 C20.2833455,59.2558545 20.2775273,59.2535273 20.2728727,59.2512 C19.6002909,58.9614545 18.9405091,58.6402909 18.2888727,58.3016727 C18.2039273,58.2574545 18.1178182,58.2155636 18.0340364,58.1701818 C17.4394182,57.8525091 16.8576,57.5092364 16.2839273,57.1508364 C16.1140364,57.0437818 15.9453091,56.9355636 15.7777455,56.8261818 C15.2494545,56.4805818 14.7281455,56.1210182 14.2208,55.7405091 C14.1684364,55.7009455 14.1184,55.6590545 14.0660364,55.6194909 C14.1032727,55.5985455 14.1405091,55.5776 14.1777455,55.5566545 L23.3786182,50.5378909 C24.9611636,49.6744727 25.9444364,48.0186182 25.9444364,46.2161455 L25.9432727,42.0247273 L25.6756364,41.7012364 C25.6500364,41.6721455 23.1342545,38.6117818 22.1835636,34.4680727 L22.0776727,34.0072727 L21.6808727,33.7501091 C21.1211636,33.3882182 20.7860364,32.7831273 20.7860364,32.1303273 L20.7860364,28.0052364 C20.7860364,27.4641455 21.0152727,26.9602909 21.4341818,26.5821091 L21.8181818,26.2353455 L21.8181818,19.7538909 L21.8077091,19.6014545 C21.8042182,19.5735273 21.4609455,16.7749818 23.4321455,14.528 C25.1147636,12.6103273 27.9982545,11.6363636 32,11.6363636 C35.9866182,11.6363636 38.8608,12.6021818 40.5480727,14.5058909 C42.5169455,16.7296 42.1946182,19.5805091 42.1922909,19.6037818 L42.1818182,26.2376727 L42.5658182,26.5844364 C42.9835636,26.9614545 43.2139636,27.4664727 43.2139636,28.0075636 L43.2139636,32.1326545 C43.2139636,32.9623273 42.6496,33.7152 41.8397091,33.9653818 L41.2613818,34.1434182 L41.0752,34.7194182 C40.3886545,36.8523636 39.4112,38.8224 38.1707636,40.5748364 C37.8658909,41.0053818 37.5691636,41.3870545 37.3143273,41.6791273 L37.0257455,42.0084364 L37.0257455,46.3127273 C37.0257455,48.1885091 38.0683636,49.8757818 39.7463273,50.7136 L49.5988364,55.6392727 C49.6616727,55.6706909 49.7233455,55.7032727 49.7850182,55.7358545 C49.6605091,55.8301091 49.5325091,55.9173818 49.4068364,56.0081455 Z"></path>
            </g>
        </g>
    </g>
</svg>
