
<svg width="64px" height="64px" viewBox="0 0 64 64" version="1.1" xmlns="http://www.w3.org/2000/svg" xmlns:xlink="http://www.w3.org/1999/xlink">
    <!-- Generator: Sketch 49 (51002) - http://www.bohemiancoding.com/sketch -->
    <desc>Created with Sketch.</desc>
    <defs>
        <rect id="path-1" x="0" y="0" width="64" height="64"></rect>
        <path d="M0.5,32 C0.5,14.615 14.615,0.5 32,0.5 C49.385,0.5 63.5,14.615 63.5,32 C63.5,49.385 49.385,63.5 32,63.5 C14.615,63.5 0.5,49.385 0.5,32 Z" id="path-3"></path>
        <path d="M0.5,32 C0.5,14.615 14.615,0.5 32,0.5 C49.385,0.5 63.5,14.615 63.5,32 C63.5,49.385 49.385,63.5 32,63.5 C14.615,63.5 0.5,49.385 0.5,32 Z" id="path-5"></path>
    </defs>
    <g id="Page-1" stroke="none" stroke-width="1" fill="none" fill-rule="evenodd">
        <g id="User">
            <mask id="mask-2" fill="white">
                <use xlink:href="#path-1"></use>
            </mask>
            <g id="Rectangle-path"></g>
            <g id="User-Icon" mask="url(#mask-2)">
                <path d="M0.5,32 C0.5,14.615 14.615,0.5 32,0.5 C49.385,0.5 63.5,14.615 63.5,32 C63.5,49.385 49.385,63.5 32,63.5 C14.615,63.5 0.5,49.385 0.5,32 Z" id="Shape" stroke="#000000"></path>
                <g id="Clipped">
                    <mask id="mask-4" fill="white">
                        <use xlink:href="#path-3"></use>
                    </mask>
                    <g id="Shape"></g>
                    <path d="M10.074,63.092 C22.022,55.11 23.663,58.808 23.663,48.472 C21.999,46.544 20.353,44.36 19.271,39.638 C16.89,38.732 16.877,30.473 18.628,29.169 C19.271,23.93 18.002,20.998 19.271,17.954 C21.569,12.442 27.566,11.579 32,11.579 M53.926,63.092 C41.978,55.11 40.337,58.808 40.337,48.472 C42.001,46.544 43.647,44.36 44.729,39.638 C47.11,38.732 47.123,30.473 45.372,29.169 C44.729,23.93 45.998,20.998 44.729,17.954 C42.431,12.442 36.434,11.579 32,11.579" id="Shape" stroke="#000000" stroke-width="2" stroke-linecap="round" mask="url(#mask-4)"></path>
                </g>
                <g id="Clipped">
                    <mask id="mask-6" fill="white">
                        <use xlink:href="#path-5"></use>
                    </mask>
                    <g id="Shape"></g>
                    <path d="M0.5,32 C0.5,14.615 14.615,0.5 32,0.5 C49.385,0.5 63.5,14.615 63.5,32 C63.5,49.385 49.385,63.5 32,63.5 C14.615,63.5 0.5,49.385 0.5,32 Z" id="Shape" stroke="#000000" stroke-width="4" mask="url(#mask-6)"></path>
                </g>
            </g>
        </g>
    </g>
</svg>
